<svg width="40" height="40" viewBox="0 0 40 40" fill="none" xmlns="http://www.w3.org/2000/svg">
<rect width="40" height="40" rx="8" fill="#F7F7F7"/>
<g clip-path="url(#clip0_61_1149)">
<path d="M28.3158 19.8633H27.4105V19.1475C27.4105 17.4423 26.0211 16.0738 24.3368 16.0738H20.6737V15.2528C20.6737 14.8949 20.3789 14.5791 20 14.5791C19.6421 14.5791 19.3263 14.8738 19.3263 15.2528V16.0738H15.6632C13.9579 16.0738 12.5895 17.4633 12.5895 19.1475V19.8633H11.6842C10.7579 19.8633 10 20.6212 10 21.5475V23.9054C10 24.8317 10.7579 25.5896 11.6842 25.5896H12.5895V26.3054C12.5895 28.0107 13.9789 29.3791 15.6632 29.3791H24.3368C26.0421 29.3791 27.4105 27.9896 27.4105 26.3054V25.5896H28.3158C29.2421 25.5896 30 24.8317 30 23.9054V21.5475C30 20.6212 29.2421 19.8633 28.3158 19.8633ZM11.6842 24.2423C11.4947 24.2423 11.3263 24.0949 11.3263 23.8844V21.5475C11.3263 21.358 11.4737 21.1896 11.6842 21.1896H12.5895V24.2423H11.6842ZM26.0842 26.2844C26.0842 27.2528 25.3053 28.0317 24.3368 28.0317H15.6632C14.6947 28.0317 13.9158 27.2528 13.9158 26.2844V19.1475C13.9158 18.1791 14.6947 17.4002 15.6632 17.4002H24.3368C25.3053 17.4002 26.0842 18.1791 26.0842 19.1475V26.2844ZM28.6737 23.9054C28.6737 24.0949 28.5263 24.2633 28.3158 24.2633H27.4105V21.1896H28.3158C28.5053 21.1896 28.6737 21.337 28.6737 21.5475V23.9054Z" fill="#53459B"/>
<path d="M17.3475 22.2423C18.1149 22.2423 18.737 21.6202 18.737 20.8529C18.737 20.0855 18.1149 19.4634 17.3475 19.4634C16.5801 19.4634 15.958 20.0855 15.958 20.8529C15.958 21.6202 16.5801 22.2423 17.3475 22.2423Z" fill="#53459B"/>
<path d="M22.6527 22.2423C23.42 22.2423 24.0421 21.6202 24.0421 20.8529C24.0421 20.0855 23.42 19.4634 22.6527 19.4634C21.8853 19.4634 21.2632 20.0855 21.2632 20.8529C21.2632 21.6202 21.8853 22.2423 22.6527 22.2423Z" fill="#53459B"/>
<path d="M22.358 23.6318H17.6422C17.3264 23.6318 17.0948 23.9266 17.1791 24.2213C17.3896 25.0634 18.0212 26.495 20.0001 26.495C21.9791 26.495 22.6317 25.0424 22.8212 24.2213C22.9054 23.9055 22.6738 23.6318 22.358 23.6318Z" fill="#53459B"/>
<path d="M20.0003 13.2106C20.3582 13.2106 20.674 12.9159 20.674 12.5369V11.2738C20.674 10.9159 20.3793 10.6001 20.0003 10.6001C19.6424 10.6001 19.3267 10.8948 19.3267 11.2738V12.558C19.3267 12.9159 19.6424 13.2106 20.0003 13.2106Z" fill="#53459B"/>
<path d="M16.2318 13.8423L17.3476 14.4739C17.4528 14.537 17.5581 14.5581 17.6844 14.5581C17.916 14.5581 18.1265 14.4318 18.2528 14.2212C18.4423 13.9054 18.3371 13.5054 18.0002 13.316L16.8844 12.6844C16.5686 12.4949 16.1686 12.6002 15.9792 12.937C15.7897 13.2528 15.916 13.6528 16.2318 13.8423Z" fill="#53459B"/>
<path d="M22.3371 14.5579C22.4423 14.5579 22.5686 14.5368 22.6739 14.4736L23.7897 13.8421C24.1055 13.6526 24.2107 13.2526 24.0423 12.9368C23.8529 12.621 23.4529 12.5157 23.1371 12.6842L22.0213 13.3157C21.7055 13.5052 21.6002 13.9052 21.7686 14.221C21.895 14.4526 22.1055 14.5579 22.3371 14.5579Z" fill="#53459B"/>
</g>
<defs>
<clipPath id="clip0_61_1149">
<rect width="20" height="20" fill="white" transform="translate(10 10)"/>
</clipPath>
</defs>
</svg>
