<svg width="40" height="40" viewBox="0 0 40 40" fill="none" xmlns="http://www.w3.org/2000/svg">
<rect width="40" height="40" rx="8" fill="#E8E8E8"/>
<g clip-path="url(#clip0_124_32)">
<path d="M20.0773 8C16.8373 8 14.1973 10.64 14.1973 13.88C14.1973 15.9114 15.1573 18.2 16.6316 19.6915C17.1458 20.2143 17.7287 20.6343 18.3458 20.9172C18.8944 21.1657 19.4773 21.3029 20.0773 21.3029C20.6773 21.3029 21.2601 21.1657 21.8087 20.9172C22.4259 20.6343 23.0087 20.2143 23.523 19.6915C24.9973 18.2 25.9573 15.9114 25.9573 13.88C25.9573 10.64 23.3173 8 20.0773 8Z" fill="#53459B"/>
<path d="M22.52 22.4772C21.7228 22.8372 20.9086 23.0172 20.0771 23.0172C19.2457 23.0172 18.4314 22.8372 17.6343 22.4772C17.1628 22.2629 16.7086 21.9886 16.28 21.6543C12.3114 22.4 8.95996 23.6 8.95996 27.6629C8.95996 28.7 9.61996 30.14 12.7743 31.0915C14.7114 31.6743 17.3086 32 20.0771 32C25.2029 32 31.1943 30.86 31.1943 27.6629C31.1943 23.6 27.8429 22.4 23.8743 21.6543C23.4457 21.9886 22.9914 22.2629 22.52 22.4772Z" fill="#53459B"/>
</g>
<defs>
<clipPath id="clip0_124_32">
<rect width="24" height="24" fill="white" transform="translate(8 8)"/>
</clipPath>
</defs>
</svg>
