<svg width="20" height="20" viewBox="0 0 20 20" fill="none" xmlns="http://www.w3.org/2000/svg">
<g opacity="0.5" clip-path="url(#clip0_61_1177)">
<path d="M17.7524 0.6001C17.6613 0.600455 17.574 0.636852 17.5097 0.70134C17.4453 0.765829 17.4091 0.853168 17.4089 0.944279V2.03608C17.4092 2.12708 17.4456 2.21424 17.5099 2.27859C17.5742 2.34293 17.6614 2.37923 17.7524 2.37959C17.7977 2.37976 17.8426 2.37102 17.8845 2.35385C17.9264 2.33669 17.9645 2.31144 17.9966 2.27954C18.0288 2.24764 18.0543 2.20972 18.0718 2.16795C18.0893 2.12618 18.0984 2.08137 18.0986 2.03608V0.944279C18.0985 0.898935 18.0895 0.854053 18.072 0.812203C18.0546 0.770353 18.029 0.732356 17.9969 0.700388C17.9647 0.668419 17.9266 0.643106 17.8846 0.625897C17.8427 0.608688 17.7977 0.599922 17.7524 0.6001ZM10.8709 2.02935C10.7341 2.02935 10.6317 2.09361 10.5684 2.14991C10.5052 2.20623 10.466 2.26335 10.4297 2.32234C10.357 2.4403 10.3012 2.57283 10.2445 2.72646C10.131 3.03373 10.0231 3.42043 9.91848 3.81422C9.81383 4.20802 9.71276 4.60819 9.62415 4.91748C9.57984 5.07212 9.53878 5.20453 9.50425 5.29668C9.49069 5.33277 9.47453 5.36097 9.46254 5.38222C9.44104 5.3946 9.4125 5.4106 9.37705 5.42397C9.2849 5.45852 9.15249 5.49955 8.99786 5.54386C8.68857 5.63249 8.29039 5.73357 7.89662 5.8382C7.50284 5.94283 7.11407 6.05071 6.80683 6.16419C6.6532 6.22092 6.52067 6.27666 6.40271 6.34941C6.3438 6.38579 6.28867 6.42495 6.23231 6.48816C6.176 6.55137 6.11045 6.65383 6.11045 6.79058C6.11045 6.92733 6.176 7.02978 6.23231 7.093C6.28861 7.15621 6.34374 7.19537 6.40271 7.23175C6.52066 7.3045 6.6532 7.3609 6.80683 7.41764C7.11407 7.53112 7.50284 7.63834 7.89662 7.74296C8.29039 7.84759 8.68857 7.94868 8.99786 8.0373C9.15249 8.08161 9.28489 8.12331 9.37705 8.15787C9.41276 8.17128 9.44169 8.1862 9.46319 8.19828C9.47492 8.21984 9.49082 8.24835 9.50425 8.28449C9.53878 8.37665 9.57984 8.50905 9.62415 8.66369C9.71277 8.97298 9.81386 9.37181 9.91848 9.7656C10.0231 10.1594 10.131 10.5461 10.2445 10.8534C10.3013 11.007 10.3569 11.1395 10.4297 11.2575C10.4661 11.3165 10.5053 11.3736 10.5684 11.4299C10.6317 11.4862 10.7341 11.5518 10.8709 11.5518C11.0076 11.5518 11.1101 11.4862 11.1733 11.4299C11.2365 11.3736 11.2757 11.3165 11.312 11.2575C11.3848 11.1395 11.4412 11.007 11.4979 10.8534C11.6114 10.5461 11.7186 10.1594 11.8233 9.7656C11.9279 9.37181 12.029 8.97298 12.1176 8.66369C12.1619 8.50905 12.2036 8.37665 12.2381 8.28449C12.2517 8.24857 12.2672 8.2205 12.2792 8.19896C12.3007 8.18684 12.3288 8.17135 12.3647 8.15787C12.4568 8.12331 12.5892 8.08161 12.7439 8.0373C13.0532 7.94867 13.4513 7.84759 13.8451 7.74296C14.2389 7.63833 14.6277 7.53112 14.9349 7.41764C15.0885 7.36091 15.2211 7.30449 15.339 7.23175C15.3979 7.19537 15.4538 7.15621 15.5101 7.093C15.5664 7.02979 15.632 6.92733 15.632 6.79058C15.632 6.65383 15.5663 6.55138 15.5101 6.48816C15.4538 6.42495 15.398 6.38579 15.339 6.34941C15.2211 6.27666 15.0885 6.22094 14.9349 6.16419C14.6277 6.05071 14.2389 5.94282 13.8451 5.8382C13.4513 5.73357 13.0532 5.63248 12.7439 5.54386C12.5892 5.49955 12.4568 5.45852 12.3647 5.42397C12.3288 5.41054 12.3007 5.39461 12.2792 5.38222C12.2675 5.36097 12.2516 5.33276 12.2381 5.29668C12.2036 5.20453 12.1619 5.07212 12.1176 4.91748C12.029 4.60819 11.9279 4.20802 11.8233 3.81422C11.7186 3.42043 11.6114 3.03373 11.4979 2.72646C11.4412 2.57283 11.3848 2.4403 11.312 2.32234C11.2757 2.26336 11.2366 2.20622 11.1733 2.14991C11.1101 2.0936 11.0076 2.02935 10.8709 2.02935ZM2.98239 2.38228C2.8914 2.38264 2.80423 2.41894 2.73989 2.48329C2.67555 2.54763 2.63925 2.63479 2.6389 2.72579V3.81826C2.63854 3.90972 2.67453 3.99758 2.73894 4.0625C2.80336 4.12743 2.89093 4.1641 2.98239 4.16446C3.0279 4.16464 3.073 4.15581 3.11509 4.13847C3.15717 4.12114 3.19541 4.09564 3.22759 4.06346C3.25977 4.03128 3.28527 3.99304 3.3026 3.95096C3.31994 3.90888 3.32877 3.86378 3.3286 3.81826V2.72579C3.32842 2.6805 3.31932 2.63569 3.30183 2.59392C3.28434 2.55214 3.25879 2.51423 3.22664 2.48233C3.19449 2.45043 3.15637 2.42518 3.11446 2.40801C3.07256 2.39085 3.02768 2.3821 2.98239 2.38228ZM15.851 2.50217C15.8055 2.50199 15.7604 2.51082 15.7183 2.52816C15.6762 2.54549 15.638 2.57099 15.6058 2.60317C15.5736 2.63535 15.5481 2.67359 15.5308 2.71567C15.5135 2.75775 15.5046 2.80285 15.5048 2.84837C15.505 2.89365 15.5141 2.93846 15.5316 2.98024C15.5491 3.02201 15.5746 3.05993 15.6068 3.09182C15.6389 3.12372 15.677 3.14897 15.7189 3.16614C15.7608 3.18331 15.8057 3.19205 15.851 3.19187H16.9428C17.0338 3.19152 17.121 3.15522 17.1853 3.09088C17.2497 3.02653 17.286 2.93936 17.2863 2.84837C17.2865 2.80308 17.2778 2.7582 17.2606 2.71629C17.2434 2.67438 17.2182 2.63627 17.1863 2.60412C17.1544 2.57197 17.1164 2.54642 17.0747 2.52893C17.0329 2.51144 16.9881 2.50234 16.9428 2.50217H15.851ZM18.5647 2.50217C18.5194 2.50235 18.4746 2.51144 18.4328 2.52893C18.391 2.54643 18.3531 2.57198 18.3212 2.60412C18.2893 2.63627 18.2641 2.67439 18.2469 2.71629C18.2297 2.7582 18.221 2.80308 18.2212 2.84837C18.2215 2.93936 18.2578 3.02653 18.3222 3.09087C18.3865 3.15521 18.4737 3.19152 18.5647 3.19187H19.6565C19.7475 3.19152 19.8347 3.15521 19.899 3.09087C19.9633 3.02653 19.9996 2.93936 20 2.84837C20.0002 2.80308 19.9914 2.7582 19.9743 2.71629C19.9571 2.67439 19.9318 2.63627 19.8999 2.60412C19.868 2.57198 19.8301 2.54643 19.7884 2.52893C19.7466 2.51144 19.7018 2.50235 19.6565 2.50217H18.5647ZM17.7524 3.31378C17.6613 3.31414 17.574 3.35053 17.5097 3.41502C17.4453 3.47951 17.4091 3.56685 17.4089 3.65796V4.74976C17.4087 4.79505 17.4175 4.83993 17.4346 4.88184C17.4518 4.92374 17.477 4.96186 17.5089 4.99401C17.5408 5.02615 17.5788 5.0517 17.6205 5.0692C17.6623 5.08669 17.7071 5.09579 17.7524 5.09596C17.7979 5.09614 17.843 5.08731 17.8851 5.06997C17.9272 5.05264 17.9654 5.02714 17.9976 4.99496C18.0298 4.96278 18.0553 4.92454 18.0726 4.88246C18.09 4.84038 18.0988 4.79528 18.0986 4.74976V3.65796C18.0985 3.61262 18.0895 3.56773 18.072 3.52588C18.0546 3.48403 18.029 3.44604 17.9969 3.41407C17.9647 3.3821 17.9266 3.35679 17.8846 3.33958C17.8427 3.32237 17.7977 3.3136 17.7524 3.31378ZM1.081 4.28368C1.03548 4.2835 0.990385 4.29233 0.948302 4.30966C0.906218 4.327 0.867981 4.35249 0.835798 4.38468C0.803614 4.41686 0.778119 4.45509 0.760784 4.49718C0.743448 4.53926 0.734615 4.58436 0.734793 4.62987C0.734882 4.67522 0.743912 4.7201 0.761366 4.76195C0.778821 4.8038 0.804358 4.8418 0.836515 4.87376C0.868672 4.90573 0.906818 4.93105 0.94877 4.94826C0.990721 4.96546 1.03565 4.97423 1.081 4.97405H2.1728C2.26403 4.97388 2.35147 4.93756 2.41598 4.87305C2.48049 4.80854 2.51681 4.7211 2.51699 4.62987C2.51716 4.58453 2.5084 4.5396 2.49119 4.49765C2.47398 4.45569 2.44866 4.41755 2.41669 4.38539C2.38473 4.35324 2.34673 4.3277 2.30488 4.31025C2.26303 4.29279 2.21815 4.28376 2.1728 4.28368H1.081ZM3.79468 4.28368C3.74916 4.2835 3.70407 4.29233 3.66198 4.30967C3.6199 4.327 3.58167 4.3525 3.54948 4.38468C3.5173 4.41686 3.49181 4.4551 3.47447 4.49718C3.45714 4.53926 3.44831 4.58436 3.44848 4.62987C3.44857 4.67522 3.4576 4.7201 3.47506 4.76195C3.49251 4.8038 3.51805 4.84179 3.5502 4.87376C3.58236 4.90573 3.6205 4.93104 3.66245 4.94825C3.7044 4.96546 3.74933 4.97423 3.79468 4.97405H4.88649C4.97772 4.97387 5.06516 4.93755 5.12966 4.87305C5.19417 4.80854 5.23049 4.7211 5.23066 4.62987C5.23084 4.58453 5.22208 4.5396 5.20487 4.49765C5.18766 4.4557 5.16235 4.41755 5.13038 4.3854C5.09841 4.35324 5.06041 4.3277 5.01856 4.31025C4.97672 4.2928 4.93184 4.28377 4.88649 4.28368H3.79468ZM2.98239 5.09596C2.8914 5.09632 2.80423 5.13262 2.73989 5.19697C2.67555 5.26131 2.63925 5.34847 2.6389 5.43947V6.53194C2.63854 6.6234 2.67453 6.71126 2.73894 6.77618C2.80336 6.84111 2.89093 6.87778 2.98239 6.87814C3.0279 6.87832 3.073 6.86949 3.11509 6.85215C3.15717 6.83482 3.19541 6.80933 3.22759 6.77714C3.25977 6.74496 3.28527 6.70672 3.3026 6.66464C3.31994 6.62256 3.32877 6.57746 3.3286 6.53194V5.43947C3.32842 5.39418 3.31932 5.34937 3.30183 5.3076C3.28434 5.26583 3.25879 5.22791 3.22664 5.19601C3.19449 5.16411 3.15637 5.13886 3.11446 5.12169C3.07256 5.10453 3.02768 5.09578 2.98239 5.09596ZM3.77515 9.4551C3.64372 9.4551 3.54727 9.51618 3.48956 9.56757C3.43183 9.61897 3.39703 9.66865 3.36627 9.71844C3.30489 9.81803 3.26045 9.92392 3.21541 10.0458C3.12535 10.2895 3.04225 10.5919 2.96081 10.8985C2.87935 11.2051 2.80072 11.5143 2.73247 11.7525C2.69833 11.8716 2.66705 11.974 2.6415 12.0421C2.63629 12.0554 2.63108 12.0669 2.62469 12.0778C2.61296 12.0838 2.60097 12.0901 2.58702 12.0954C2.51886 12.1209 2.41787 12.1535 2.29875 12.1876C2.06051 12.2559 1.75127 12.3332 1.44471 12.4146C1.13815 12.4961 0.83572 12.5805 0.592005 12.6706C0.470148 12.7156 0.3629 12.7593 0.263329 12.8208C0.213544 12.8515 0.16454 12.8863 0.113125 12.944C0.0617758 13.0017 0 13.0988 0 13.2303C0 13.3617 0.0617758 13.4581 0.113125 13.5158C0.164475 13.5736 0.213478 13.607 0.263329 13.6378C0.3629 13.6992 0.470148 13.7429 0.592005 13.788C0.83572 13.878 1.13815 13.9624 1.44471 14.0439C1.75127 14.1254 2.06051 14.204 2.29875 14.2722C2.41787 14.3064 2.51888 14.3376 2.58702 14.3632C2.6011 14.3684 2.61348 14.3746 2.62469 14.3807C2.63121 14.3916 2.63642 14.4029 2.6415 14.4164C2.66705 14.4845 2.69833 14.5869 2.73247 14.706C2.80076 14.9442 2.87935 15.2535 2.96081 15.56C3.04226 15.8666 3.12539 16.169 3.21541 16.4127C3.26037 16.5346 3.30481 16.6405 3.36627 16.7401C3.39703 16.7899 3.43183 16.8395 3.48956 16.8909C3.5473 16.9423 3.64372 17.0048 3.77515 17.0048C3.90658 17.0048 4.00302 16.9423 4.06073 16.8909C4.11847 16.8395 4.15326 16.7899 4.18402 16.7401C4.24541 16.6405 4.2892 16.5346 4.33423 16.4127C4.42428 16.169 4.50738 15.8666 4.58882 15.56C4.67028 15.2535 4.74889 14.9442 4.81714 14.706C4.85129 14.5869 4.88257 14.4845 4.90811 14.4164C4.91333 14.4029 4.91854 14.3916 4.92493 14.3807C4.93666 14.3747 4.94865 14.3684 4.96259 14.3632C5.03075 14.3376 5.13176 14.3064 5.25087 14.2722C5.48911 14.204 5.79835 14.1253 6.10492 14.0439C6.41148 13.9624 6.7139 13.878 6.95761 13.788C7.07947 13.743 7.18672 13.6992 7.2863 13.6378C7.33609 13.607 7.38574 13.5736 7.43717 13.5158C7.48852 13.4581 7.54964 13.3617 7.54964 13.2303C7.54964 13.0988 7.48852 13.0017 7.43717 12.944C7.38582 12.8863 7.33603 12.8515 7.2863 12.8208C7.18673 12.7593 7.07947 12.7156 6.95761 12.6706C6.7139 12.5805 6.41148 12.4961 6.10492 12.4146C5.79835 12.3332 5.48911 12.2559 5.25087 12.1876C5.13174 12.1535 5.03074 12.1209 4.96259 12.0954C4.94852 12.0901 4.93627 12.0839 4.92493 12.0778C4.91841 12.0669 4.9132 12.0554 4.90811 12.0421C4.88257 11.974 4.85129 11.8717 4.81714 11.7525C4.74885 11.5143 4.67028 11.2051 4.58882 10.8985C4.50737 10.5919 4.42423 10.2895 4.33423 10.0458C4.28926 9.92391 4.24547 9.81803 4.18402 9.71844C4.15326 9.66864 4.11847 9.61898 4.06073 9.56757C4.00299 9.51617 3.90658 9.4551 3.77515 9.4551ZM16.4558 10.1111C16.3294 10.1111 16.2376 10.1707 16.1851 10.2175C16.1326 10.2644 16.1041 10.3077 16.0786 10.3489C16.0278 10.4313 15.9941 10.5133 15.9601 10.6055C15.892 10.7899 15.8301 11.0121 15.7702 11.2373C15.7104 11.4625 15.6538 11.689 15.6045 11.861C15.5812 11.9421 15.5601 12.0083 15.5433 12.0543C15.4972 12.0711 15.431 12.0917 15.3499 12.1149C15.178 12.1642 14.9521 12.2214 14.7269 12.2813C14.5018 12.3411 14.2789 12.4031 14.0945 12.4712C14.0022 12.5053 13.9203 12.5382 13.8378 12.5891C13.7967 12.6145 13.7547 12.6436 13.7079 12.6962C13.6611 12.7487 13.6016 12.8404 13.6016 12.9669C13.6016 13.0934 13.6611 13.1851 13.7079 13.2377C13.7548 13.2902 13.7967 13.3187 13.8378 13.3441C13.9202 13.3949 14.0023 13.4286 14.0945 13.4626C14.2789 13.5308 14.5018 13.5921 14.7269 13.6519C14.9521 13.7117 15.178 13.769 15.3499 13.8183C15.4311 13.8415 15.4972 13.8621 15.5433 13.8789C15.5601 13.9249 15.5812 13.9914 15.6045 14.0729C15.6538 14.2448 15.7103 14.4707 15.7702 14.6959C15.83 14.9211 15.892 15.1446 15.9601 15.329C15.9941 15.4212 16.0279 15.5025 16.0786 15.585C16.104 15.6262 16.1324 15.6688 16.1851 15.7156C16.2376 15.7625 16.3294 15.822 16.4558 15.822C16.5823 15.822 16.674 15.7625 16.7266 15.7156C16.7791 15.6688 16.8077 15.6262 16.8331 15.585C16.8839 15.5025 16.9175 15.4212 16.9517 15.329C17.0198 15.1446 17.0817 14.9211 17.1416 14.6959C17.2014 14.4707 17.258 14.2448 17.3073 14.0729C17.3306 13.9914 17.3524 13.9249 17.3693 13.8789C17.4153 13.8621 17.4808 13.8415 17.562 13.8183C17.7339 13.769 17.9598 13.7117 18.185 13.6519C18.4101 13.5921 18.633 13.5308 18.8174 13.4626C18.9097 13.4286 18.9916 13.3949 19.0741 13.3441C19.1152 13.3187 19.1572 13.2902 19.204 13.2377C19.2509 13.1851 19.3103 13.0934 19.3103 12.9669C19.3103 12.8404 19.2508 12.7487 19.204 12.6962C19.1572 12.6436 19.1152 12.6145 19.0741 12.5891C18.9916 12.5382 18.9096 12.5053 18.8174 12.4712C18.633 12.4031 18.4101 12.3411 18.185 12.2813C17.9598 12.2214 17.7339 12.1642 17.562 12.1149C17.4808 12.0917 17.4153 12.0711 17.3693 12.0543C17.3526 12.0083 17.3306 11.9421 17.3073 11.861C17.258 11.689 17.2015 11.4625 17.1416 11.2373C17.0818 11.0121 17.0197 10.7899 16.9517 10.6055C16.9177 10.5133 16.884 10.4313 16.8331 10.3489C16.8077 10.3077 16.7792 10.2644 16.7266 10.2175C16.6741 10.1707 16.5823 10.1111 16.4558 10.1111ZM9.43556 14.9451C9.39028 14.9449 9.3454 14.9537 9.30349 14.9708C9.26158 14.988 9.22347 15.0133 9.19132 15.0451C9.15917 15.077 9.13362 15.115 9.11613 15.1567C9.09863 15.1985 9.08954 15.2433 9.08936 15.2886V16.3811C9.08918 16.4266 9.09801 16.4717 9.11535 16.5138C9.13268 16.5559 9.15818 16.5941 9.19036 16.6263C9.22255 16.6585 9.26078 16.684 9.30287 16.7013C9.34495 16.7186 9.39005 16.7275 9.43556 16.7273C9.48091 16.7272 9.52579 16.7182 9.56764 16.7007C9.60948 16.6833 9.64748 16.6577 9.67945 16.6256C9.71142 16.5934 9.73673 16.5553 9.75394 16.5133C9.77115 16.4714 9.77991 16.4264 9.77974 16.3811V15.2886C9.77938 15.1975 9.74298 15.1102 9.6785 15.0459C9.61401 14.9815 9.52667 14.9453 9.43556 14.9451ZM7.53146 16.8465C7.44 16.8469 7.35243 16.8835 7.28802 16.9485C7.2236 17.0134 7.18761 17.1012 7.18797 17.1927C7.18814 17.2838 7.22437 17.3711 7.28873 17.4356C7.35309 17.5001 7.44035 17.5365 7.53146 17.5369H8.62394C8.71505 17.5365 8.80232 17.5001 8.86668 17.4356C8.93105 17.3711 8.96727 17.2838 8.96745 17.1927C8.96763 17.1474 8.95888 17.1025 8.94171 17.0606C8.92455 17.0187 8.89929 16.9806 8.8674 16.9485C8.8355 16.9163 8.79758 16.8908 8.75581 16.8733C8.71404 16.8558 8.66923 16.8467 8.62394 16.8465H7.53146ZM10.2451 16.8465C10.1537 16.8469 10.0661 16.8835 10.0017 16.9485C9.93728 17.0134 9.90129 17.1012 9.90165 17.1927C9.90182 17.2838 9.93805 17.3711 10.0024 17.4356C10.0668 17.5001 10.154 17.5365 10.2451 17.5369H11.3376C11.383 17.5371 11.4279 17.5283 11.4699 17.5111C11.5118 17.4939 11.55 17.4685 11.5821 17.4366C11.6143 17.4046 11.6398 17.3666 11.6573 17.3248C11.6747 17.2829 11.6837 17.238 11.6838 17.1927C11.684 17.1472 11.6752 17.1021 11.6578 17.06C11.6405 17.0179 11.615 16.9797 11.5828 16.9475C11.5506 16.9153 11.5124 16.8898 11.4703 16.8725C11.4282 16.8552 11.3831 16.8463 11.3376 16.8465H10.2451ZM9.43556 17.6588C9.39028 17.6586 9.3454 17.6673 9.30349 17.6845C9.26158 17.7017 9.22347 17.7269 9.19132 17.7588C9.15917 17.7907 9.13362 17.8286 9.11613 17.8704C9.09863 17.9122 9.08954 17.957 9.08936 18.0023V19.0948C9.08918 19.1403 9.09801 19.1854 9.11535 19.2275C9.13268 19.2695 9.15818 19.3078 9.19036 19.34C9.22255 19.3721 9.26078 19.3976 9.30287 19.415C9.34495 19.4323 9.39005 19.4411 9.43556 19.441C9.48091 19.4409 9.52579 19.4318 9.56764 19.4144C9.60948 19.3969 9.64748 19.3714 9.67945 19.3392C9.71142 19.3071 9.73673 19.2689 9.75394 19.227C9.77115 19.185 9.77991 19.1401 9.77974 19.0948V18.0023C9.77938 17.9112 9.74298 17.8239 9.6785 17.7596C9.61401 17.6952 9.52667 17.659 9.43556 17.6588Z" fill="#1F1F1F"/>
</g>
<defs>
<clipPath id="clip0_61_1177">
<rect width="20" height="20" fill="white"/>
</clipPath>
</defs>
</svg>
